<?xml version="1.0" encoding="utf-8"?>
<!-- Generator: Adobe Illustrator 18.0.0, SVG Export Plug-In . SVG Version: 6.00 Build 0)  -->
<!DOCTYPE svg PUBLIC "-//W3C//DTD SVG 1.1//EN" "http://www.w3.org/Graphics/SVG/1.1/DTD/svg11.dtd">
<svg version="1.1" id="Layer_1" xmlns="http://www.w3.org/2000/svg" viewBox="0 0 24 24" >

		
		<path d="M883.9,193.7l-6.5-4.5c0.2-1,0.4-2,0.3-3.1c-0.3-5.2-4.9-9.2-10.2-9.2h-11.8c-6.9-14.1-43.2-34.9-43.2-34.9
			c-10.7-10.2-19.8-22.9-19.8-22.9l-62-88.1c6.8,10.7,40,62.5,40,62.5c-12.9-16.3-35.4-46.7-35.4-46.7c8.5,15,51.1,69.2,51.1,69.2
			c-20.3-19.9-33.3-22.7-33.3-22.7c22.2,9.1,50,43.4,50,43.4c-4.7-5.5-25.8-14.2-25.8-14.2L691.9,83l-26.5-13.1
			c-15-9.7-41.7-21-41.7-21l7.1,6.8l-5.4-2.5l6.8,6.9l-5.5-2.3l8.8,7.6l-5.8-2.1c3.1,4.8,9.7,9.7,9.7,9.7l-5.5-2.3
			c3,3.4,11.3,11.3,11.3,11.3c-1.3-0.8-8.2-4.2-8.2-4.2c2.1,2.4,14,11.2,14,11.2c-3.4-1.6-11.7-6.6-11.7-6.6
			c14.4,13.1,43.1,31.5,43.1,31.5c-10.9-5.8-37.8-22.7-37.8-22.7c21.4,21.4,73.3,50,73.3,50l-54.6-7.4l58.9,9.7l9,5.4l-71.9-12.6
			l78.7,16.1L646,136.1l75.8,15.4l-62.1-10.9l88.9,18.1l17.5,8.4L653.5,146l113.6,23.4l4.6,2.5l-110.4-17.6l115.8,20.1
			c4.9,1.1,9.2,2.1,12.5,2.8h-81.5v4.1h-0.9c-25-11.2-69.8-18.9-69.8-18.9c-7.3-1.2-14.5-4-14.5-4c-18.7-8.5-30.9-5.7-30.9-5.7
			c3.4,0,8.5,3.2,8.5,3.2c-3.2-0.4-6.4,0-6.4,0c9.9,4,20.9,5.1,20.9,5.1c69.9,10.6,83.9,20.3,83.9,20.3
			c-33.7-10-72.1-14.7-72.1-14.7l-1.5-0.9c-1.2-0.7-2.5-1.3-3.9-1.8c-18.6-6.3-29.6-3.3-29.6-3.3c3.8,0.6,6,2.2,6,2.2h-4.3
			c7.9,3.5,27.4,6.6,27.4,6.6c46,3.8,70.5,13.3,70.5,13.3c-37.7-9-70.9-11-70.9-11c-3.4-2.4-13-4.1-13-4.1c0.6,0.6,0.8,1.4,0.8,1.4
			c-8.5-1.6-18.5,0-18.5,0c8.6,3.2,19.1,4,19.1,4c-0.9,0.6-4,0.8-4,0.8c9.3,1.3,15.1,0,15.1,0c48.3,4.2,70.9,10.8,70.9,10.8
			c-31.1-5.5-66.4-4.8-66.4-4.8l-1.3-0.9c-4.3-2.5-13.8-2.7-13.8-2.7c1.3,0.2,3.1,1.7,3.1,1.7c-19.1-0.8-29.1,0.8-29.1,0.8
			c2.9,2.9,10.4,6.3,10.4,6.3c-2.4,0.5-5.7,3.4-5.7,3.4c6.5-2,17.4-2.5,22.5-2.6c3.7-0.1,7.3-0.8,10.7-2.3c0.5-0.2,0.8-0.3,0.8-0.3
			c25-1.3,60.9,3.6,60.9,3.6c-30.4,4.1-71.5,17.9-71.5,17.9c-3.1-1.4-7.3-0.9-7.3-0.9c1.9,0,3,1.3,3,1.3c-15.8,3.1-19,8.8-19,8.8
			c13.2-0.8,20.8-5.4,20.8-5.4c-0.7,1.3-1.9,3.3-1.9,3.3c3.1-1.9,5.1-4.8,5.1-4.8c30.3-10.8,69.9-18.5,69.9-18.5
			c-2.5,1.3-8.3,5.6-8.3,5.6c-34,8.8-62.7,24.4-62.7,24.4c-7-0.8-9,0.6-9,0.6c3.2-0.4,6.4,0.6,6.4,0.6c-13.6,3.6-17.7,12-17.7,12
			c10.9-1.1,19.5-9.7,19.5-9.7c0,1.1-1.1,4.4-1.1,4.4c3.1-2.7,3.2-6.3,3.2-6.3c38.5-18.2,59.3-23.3,59.3-23.3
			c-23.7,20.5-15.3,47-15.3,47C665,273,694.6,269,694.6,269h40.9c-17.7-5.4-32.1-13.4-32.1-13.4l3.8,6.7c-26.9,3-37.5-7.4-41.7-16.9
			c-2.7-6.2-3-13.3-1.3-19.9c8.3-32.5,36.4-34.3,44-34.2v5.3h112.3h6.3l-5.4,3c-24.9,18.1-146.3,37-146.3,37
			c67.8-7.3,117.8-22.3,117.8-22.3c-27.1,10.7-103.1,36.1-103.1,36.1c66.6-19.2,138.4-47.2,138.4-47.2l-30.2,15.3l16.1-4.5
			c-16.4,12.1-77.4,45.8-77.4,45.8c35-15,81.3-45.2,81.3-45.2c-4.5,8.5-91.2,79.1-91.2,79.1l63.8-49.7
			c-15.3,19.8-24.9,38.1-24.9,38.1c31.6-48.9,64.4-72.9,64.4-72.9c-12.4,12.4-85.6,106.8-85.6,106.8c19.2-24.6,77.2-90.5,77.2-90.5
			l-59.9,91.9l62.8-91.8c-1,21.7-16,47.1-16,47.1c13.3-14.6,19.7-51.2,19.7-51.2c2.8-5.2,9.5-16.8,9.5-16.8h2.5
			c-10.6,46.6-47.1,108-47.1,108c27.5-29.2,50-108.1,50-108.1l3.5-0.1c2.1,36-11.7,111.1-11.7,111.1c12.5-39.2,14.5-93.8,14.8-112.4
			c0.1-3.5,2.9-6.3,6.4-6.4c1.6,0,3-0.1,4.3-0.2h7.5c2.5,0,4.8-0.9,6.5-2.4l6.2,4.3c0.5,0.4,1.1,0.5,1.7,0.5c0.9,0,1.8-0.4,2.4-1.2
			C885.6,196.4,885.3,194.6,883.9,193.7z"/>
		

</svg>
