<?xml version="1.0" encoding="utf-8"?>
<!-- Generator: Adobe Illustrator 18.0.0, SVG Export Plug-In . SVG Version: 6.00 Build 0)  -->
<!DOCTYPE svg PUBLIC "-//W3C//DTD SVG 1.1//EN" "http://www.w3.org/Graphics/SVG/1.1/DTD/svg11.dtd">
<svg version="1.1" id="Layer_1" xmlns="http://www.w3.org/2000/svg" xmlns:xlink="http://www.w3.org/1999/xlink" x="0px" y="0px"
	 viewBox="0 0 1400 980" enable-background="new 0 0 1400 980" xml:space="preserve">
<g>
	<rect fill="#FFFFFF" width="1400" height="980"/>
	<g>
		
		<path d="M883.9,193.7l-6.5-4.5c0.2-1,0.4-2,0.3-3.1c-0.3-5.2-4.9-9.2-10.2-9.2h-11.8c-6.9-14.1-43.2-34.9-43.2-34.9
			c-10.7-10.2-19.8-22.9-19.8-22.9l-62-88.1c6.8,10.7,40,62.5,40,62.5c-12.9-16.3-35.4-46.7-35.4-46.7c8.5,15,51.1,69.2,51.1,69.2
			c-20.3-19.9-33.3-22.7-33.3-22.7c22.2,9.1,50,43.4,50,43.4c-4.7-5.5-25.8-14.2-25.8-14.2L691.9,83l-26.5-13.1
			c-15-9.7-41.7-21-41.7-21l7.1,6.8l-5.4-2.5l6.8,6.9l-5.5-2.3l8.8,7.6l-5.8-2.1c3.1,4.8,9.7,9.7,9.7,9.7l-5.5-2.3
			c3,3.4,11.3,11.3,11.3,11.3c-1.3-0.8-8.2-4.2-8.2-4.2c2.1,2.4,14,11.2,14,11.2c-3.4-1.6-11.7-6.6-11.7-6.6
			c14.4,13.1,43.1,31.5,43.1,31.5c-10.9-5.8-37.8-22.7-37.8-22.7c21.4,21.4,73.3,50,73.3,50l-54.6-7.4l58.9,9.7l9,5.4l-71.9-12.6
			l78.7,16.1L646,136.1l75.8,15.4l-62.1-10.9l88.9,18.1l17.5,8.4L653.5,146l113.6,23.4l4.6,2.5l-110.4-17.6l115.8,20.1
			c4.9,1.1,9.2,2.1,12.5,2.8h-81.5v4.1h-0.9c-25-11.2-69.8-18.9-69.8-18.9c-7.3-1.2-14.5-4-14.5-4c-18.7-8.5-30.9-5.7-30.9-5.7
			c3.4,0,8.5,3.2,8.5,3.2c-3.2-0.4-6.4,0-6.4,0c9.9,4,20.9,5.1,20.9,5.1c69.9,10.6,83.9,20.3,83.9,20.3
			c-33.7-10-72.1-14.7-72.1-14.7l-1.5-0.9c-1.2-0.7-2.5-1.3-3.9-1.8c-18.6-6.3-29.6-3.3-29.6-3.3c3.8,0.6,6,2.2,6,2.2h-4.3
			c7.9,3.5,27.4,6.6,27.4,6.6c46,3.8,70.5,13.3,70.5,13.3c-37.7-9-70.9-11-70.9-11c-3.4-2.4-13-4.1-13-4.1c0.6,0.6,0.8,1.4,0.8,1.4
			c-8.5-1.6-18.5,0-18.5,0c8.6,3.2,19.1,4,19.1,4c-0.9,0.6-4,0.8-4,0.8c9.3,1.3,15.1,0,15.1,0c48.3,4.2,70.9,10.8,70.9,10.8
			c-31.1-5.5-66.4-4.8-66.4-4.8l-1.3-0.9c-4.3-2.5-13.8-2.7-13.8-2.7c1.3,0.2,3.1,1.7,3.1,1.7c-19.1-0.8-29.1,0.8-29.1,0.8
			c2.9,2.9,10.4,6.3,10.4,6.3c-2.4,0.5-5.7,3.4-5.7,3.4c6.5-2,17.4-2.5,22.5-2.6c3.7-0.1,7.3-0.8,10.7-2.3c0.5-0.2,0.8-0.3,0.8-0.3
			c25-1.3,60.9,3.6,60.9,3.6c-30.4,4.1-71.5,17.9-71.5,17.9c-3.1-1.4-7.3-0.9-7.3-0.9c1.9,0,3,1.3,3,1.3c-15.8,3.1-19,8.8-19,8.8
			c13.2-0.8,20.8-5.4,20.8-5.4c-0.7,1.3-1.9,3.3-1.9,3.3c3.1-1.9,5.1-4.8,5.1-4.8c30.3-10.8,69.9-18.5,69.9-18.5
			c-2.5,1.3-8.3,5.6-8.3,5.6c-34,8.8-62.7,24.4-62.7,24.4c-7-0.8-9,0.6-9,0.6c3.2-0.4,6.4,0.6,6.4,0.6c-13.6,3.6-17.7,12-17.7,12
			c10.9-1.1,19.5-9.7,19.5-9.7c0,1.1-1.1,4.4-1.1,4.4c3.1-2.7,3.2-6.3,3.2-6.3c38.5-18.2,59.3-23.3,59.3-23.3
			c-23.7,20.5-15.3,47-15.3,47C665,273,694.6,269,694.6,269h40.9c-17.7-5.4-32.1-13.4-32.1-13.4l3.8,6.7c-26.9,3-37.5-7.4-41.7-16.9
			c-2.7-6.2-3-13.3-1.3-19.9c8.3-32.5,36.4-34.3,44-34.2v5.3h112.3h6.3l-5.4,3c-24.9,18.1-146.3,37-146.3,37
			c67.8-7.3,117.8-22.3,117.8-22.3c-27.1,10.7-103.1,36.1-103.1,36.1c66.6-19.2,138.4-47.2,138.4-47.2l-30.2,15.3l16.1-4.5
			c-16.4,12.1-77.4,45.8-77.4,45.8c35-15,81.3-45.2,81.3-45.2c-4.5,8.5-91.2,79.1-91.2,79.1l63.8-49.7
			c-15.3,19.8-24.9,38.1-24.9,38.1c31.6-48.9,64.4-72.9,64.4-72.9c-12.4,12.4-85.6,106.8-85.6,106.8c19.2-24.6,77.2-90.5,77.2-90.5
			l-59.9,91.9l62.8-91.8c-1,21.7-16,47.1-16,47.1c13.3-14.6,19.7-51.2,19.7-51.2c2.8-5.2,9.5-16.8,9.5-16.8h2.5
			c-10.6,46.6-47.1,108-47.1,108c27.5-29.2,50-108.1,50-108.1l3.5-0.1c2.1,36-11.7,111.1-11.7,111.1c12.5-39.2,14.5-93.8,14.8-112.4
			c0.1-3.5,2.9-6.3,6.4-6.4c1.6,0,3-0.1,4.3-0.2h7.5c2.5,0,4.8-0.9,6.5-2.4l6.2,4.3c0.5,0.4,1.1,0.5,1.7,0.5c0.9,0,1.8-0.4,2.4-1.2
			C885.6,196.4,885.3,194.6,883.9,193.7z"/>
		<path d="M884,538.7l-11.2-9.8c1.5-2,2.4-4.6,2.4-7.3v0c0-6.8-5.5-12.3-12.3-12.3h-24.9c-10.7-41.5-63.7-60.5-63.7-60.5
			c-67.7-29.1-111.5-83.5-111.5-83.5c18.4,61.1,96.6,117.7,96.6,117.7c-14.2-6.1-35.6-21.8-35.6-21.8c19.1,19.9,54,35.8,54,35.8
			c-23.8-6.4-58.1-24-58.1-24C735.3,485,781,502,781,502c-24.2-2.7-57-18.9-57-18.9c6.1,6.4,31.2,15.4,31.2,15.4
			c-17.7-3.7-49.9-16.9-49.9-16.9c31.6,21,96.4,29.4,96.4,29.4H724c0,0-103.8-0.4-147.9-16.9c0,0,18.3,23.9,60.1,34.7
			c-14.7,7.2-38,18-54.8,22c0,0,64.7,5.7,96-16.9c7.6,0,15.7-0.4,24.3-1.3c-11.1,8.1-24.2,20.6-23.9,42.3
			c0.1,3.8,2.1,17.7,10.7,26.2c9.9,9.8,31.9,20.8,82.1,11.3c0,0-28.1-3.6-40.1-12.1l3.4,9.1c0,0-40.9,0.6-45.4-28.6
			c-0.7-4.4-0.8-9.3-0.1-13.6c2-12.8,13.1-32.6,35.4-34.6h66.5c-14.5,14-31.3,10.4-31.3,10.4c-17.8-3.8-24.3-1.3-24.3-1.3
			c11.8-0.5,16.6,2.9,16.6,2.9c-16.7,2.9-38.1-1.6-38.1-1.6c14.6,4.4,30,5.2,30,5.2c-13.1,2.9-35.4-0.7-35.4-0.7
			c12,4,25.4,3.2,25.4,3.2c-19.1,3.9-29,14.9-29,14.9c28.7-20.6,50.9-12.2,50.9-12.2c-18.6,4-34.5,14.3-34.5,14.3
			c31.7-15.2,70.5-16.7,70.5-16.7c-16.7,4.2-23,13.1-23,13.1c-5.9,5.7-12.7,8.1-12.7,8.1c-8.1,3.7-39.2,5-39.2,5c22.4,0.9,39-2,39-2
			c-7.4,5-37.9,9.6-37.9,9.6c36.2-2.6,55.4-14.2,55.4-14.2c-16.2,13.4-49.1,25.8-49.1,25.8c30.3-9,49.1-23,49.1-23
			c-17.3,12.7-23.2,26.3-23.2,26.3c17.8-27.6,53.4-39.4,53.4-39.4c-10.7,14.5-45.6,37.5-45.6,37.5c19.1-8.5,35.5-23.5,35.5-23.5
			c-10.3,12.7-16.2,25.4-16.2,25.4c14.2-25.4,61.4-65.3,61.4-65.3H863c1.6,0,3.1-0.3,4.5-0.9l12.2,10.7c0.6,0.5,1.4,0.8,2.2,0.8
			c0.9,0,1.8-0.4,2.5-1.1C885.6,542,885.4,539.9,884,538.7z M766.8,568c17.7-12,27.8-12.6,27.8-12.6
			C785.5,566.5,766.8,568,766.8,568z"/>
		<g>
			<path d="M1202.9,195.4l-6.3-8.3c2.1-2.8,1.7-6.9,1.7-6.9c0.3-11.9-11.9-9.1-11.9-9.1s-7.7-52.1-57.7-81.7c0,0,40,29.6,49.2,70
				c0,0-22.3-46.5-61.5-76.1c0,0,44.1,47.7,57,75.6c0,0-12.3-13.6-25.4-31.6c0,0-10.2-14.1-26.4-27.8c-3.6-4.9-7.1-9.1-10.4-12.7
				c-1.9-16.2-1.4-27.2-1.4-27.2c-0.9,8.8-1.1,17.1-0.7,25c-15.3-15.9-26.7-19.4-26.7-19.4c10.1,6.1,19,14.4,27,23.6
				c0,0.5,0.1,1,0.1,1.5c-14.4-9.8-31.8-17.3-50.4-16.1c0,0,24.7,2.1,50.9,20.8c1.4,12.2,4.1,23.1,7.3,32.6
				c-2.5-1.8-4.7-3.4-6.7-4.8c0,0-49.5-35.9-83.3-33.6c0,0,31.4,3.6,50.4,18.4c0,0-15.8-8.6-34.2-11.3c0,0,26.3,7.1,33.8,14.6
				c0,0-26.5-5.4-48.4,2.7c0,0,29-4.4,47.9-0.4c0,0-20.6,0-38.2,7.7c0,0,30.9-8.6,42.5-3.7c0,0,25.6,11.6,41,22.6
				c5.2,11.8,11,20.4,14.8,25.6c-13.3-4.7-43.4-8.4-111.2,1.5c11.2-1.6,87.1-11.7,112.5,1.9c-20.9,0.2-48.9,1.8-84.9,6.3v1.8
				c-4.6-0.2-20.1-0.4-37,3.7c-26.9,6.4-44.2,20.6-50,41c-0.2,0.8-5,18.8,7.2,32.6c8.6,9.7,23.2,14.6,43.5,14.6
				c4.7,0,9.7-0.3,15-0.8c0,0,0,0,0,0c0,0,16.3-1.5,21-6.6c0,0-19.8,4-39-12.1c0,0,3.1,6.1,8.4,11.7c-20.6,0.8-35.4-3.1-43.1-11.8
				c-9.5-10.6-5.7-25.3-5.6-25.4c11.5-40.1,71.5-39.3,79.6-39v1.4c27.1,3.4,49.6,5.1,68,5.8c-28.8,10.6-83.1-3.5-83.1-3.5
				c37.7,14.9,83.5,8.4,83.5,8.4c-31.1,9-83.5,3.3-83.5,3.3c42.8,10.1,92-2.7,92-2.7c-52.5,19.1-80.8,56.7-80.8,56.7
				c32.9-34.4,68.5-43.1,68.5-43.1c-16.5,26.7-49.5,32.3-49.5,32.3c-14.8,5.2-14.6,14.2-14.6,14.2c3.7-8.8,12.4-11.2,14.6-11.5
				c1.2-0.2,2.3-0.3,3.5-0.6c14.4-3,24.2-9.6,24.2-9.6c22.3-15.9,27.2-13,27.2-13c-16.9,23.2-61.2,41.9-61.2,41.9
				c44.1-14.6,64.8-39.2,64.8-39.2c-27.5,35.4-85,54.3-85,54.3c67.1-15.1,111.2-74.3,111.2-74.3c-11.8,25.6-73.8,71.2-73.8,71.2
				c58.9-37.7,79.4-72,79.4-72c-2.3,19-31.3,40.8-37.6,45.3c-0.9,0.6-1.7,1.3-2.6,1.9c-21.4,17.6-27.5,39.1-27.5,39.1
				c7-15.4,16.7-26.1,23.3-32.2c3.2-3,6.8-5.5,10.6-7.8c25.7-15.5,41.2-46.9,41.2-46.9c-8.5,36.5-65.7,79.2-65.7,79.2
				c56.1-31.5,75.3-83.4,75.3-83.4c-23.4,68.8-96.5,102.1-96.5,102.1c84.6-34.3,107.3-112.4,107.3-112.4c2.2,0.5,4,0.6,5.5,0.4
				l6.8,8.9c0.5,0.7,1.3,1.1,2.1,1.1c0.6,0,1.1-0.2,1.6-0.6C1203.5,198.2,1203.8,196.5,1202.9,195.4z M1138,122.5l27.2,37.6
				c0,0-7.2-4.8-16.6-11.2c-5.6-13.6-11.3-25-17.1-34.6C1133.7,116.9,1135.9,119.6,1138,122.5z M1111.8,91.6
				c0.1,0.1,0.2,0.2,0.3,0.4c-0.1-0.1-0.2-0.1-0.3-0.2C1111.9,91.7,1111.8,91.7,1111.8,91.6z M1112.7,96.7c2.6,2,5.3,4.1,7.9,6.5
				c10,14.6,17.8,29.9,23.3,42.5c-7.2-4.9-15.3-10.4-22.2-15.3C1117.2,118.6,1114.4,107,1112.7,96.7z M1127,143.3
				c0.2,0.2,0.5,0.4,0.7,0.6c0,0,12,7.5,19.7,24.5c-1.2,0-2.4,0-3.6,0c-0.7-0.5-1.5-1-2.4-1.5C1135.6,159.4,1130.9,151.4,1127,143.3
				z"/>
			<path d="M1025.6,166.5c-0.9,0.1-1.4,0.2-1.4,0.2C1024.7,166.7,1025.1,166.6,1025.6,166.5z"/>
		</g>
		<path d="M1151.1,832.5l-10.9-13.6c1.2-2.1,2-4.5,2-7.1c0-7.6-6.2-13.7-13.7-13.7h-19.4c0,0-58.8-66.9-220.9-113.2
			c0,0,13.5,6.4,24.1,11.3l-5.8-0.3c0,0,29.3,11.6,42.1,19.3c0,0-21.9-9.5-36.5-14.1c0,0,22.6,12.5,37.8,18.2L920,709.1l28.6,14
			l-22.8-7.5l25.1,11.6l-16.2-4.3l12.3,7.2c0,0-28.7-1.4-61.7,18.1c0,0,34.2-8.2,66.1,4.8c0,0-25.9-5.1-43.9-1.5
			c0,0,28.9,2.9,39.2,6.4c0,0-10.6-1.3-23.2,0c0,0,19.8,4.5,27.1,8c0,0,27.6,15.4,58,25.7c0,0-21.1-5.6-46.6-6.4
			c0,0,38.1,5.5,50.2,9.9c0,0-23.6-3.6-36.2-2.2c0,0,41.2,3.2,50.9,11.5h-78.2v3.4c-84.9-15.9-179.1-12.7-179.1-12.7
			c65.6,4.2,72.7,12.7,72.7,12.7c-29.3-8.2-62.4-3.4-62.4-3.4c42.8,1.6,58.5,8.5,58.5,8.5c-37.9-7.6-90,1.3-90,1.3
			c64.2-5,91.9,5.7,91.9,5.7c-5.1,4.3-46.3,1.4-46.3,1.4c27.3,5.1,53.1,2.3,53.1,2.3c-21,4.7-61.7,2.7-61.7,2.7
			c41.7,4.8,77.9,0.7,77.9,0.7c-11.1,3.9-54.3,4.9-54.3,4.9c40.9,2.3,79.3-3.4,105.5-9c-2.9,2.2-5.6,4.7-8.1,7.7
			c-9.1,10.9-12.7,25-10.7,42.1c0.1,0.7,2.5,18.2,19.6,28.5c7.9,4.8,17.5,7.1,28.7,7.1c13.5,0,29.3-3.4,47.3-10.3
			c-17.7-2.3-40.4-12.3-40.4-12.3c1.7,5.4,7.2,9.9,10.1,12.1c-17.2,3.2-31.1,1.9-41.1-4c-13.5-8-15.5-21.7-15.6-22.2
			c-1.7-14.5,1.2-26.4,8.7-35.4c11.3-13.5,29.9-16.9,35.9-17.6v5h82.6c-40,1.8-61.5,8-61.5,8c27.5-5.1,62.2-1.2,62.2-1.2
			c-16.2,6.8-50.2,4.6-50.2,4.6c21.7,3.1,50.9,2.7,50.9,2.7c-15.9,4.9-67.5,4-67.5,4c28.9,4.8,71.9-0.7,71.9-0.7
			c-16.6,8.2-64.6,15.9-64.6,15.9c28,0,65.4-10.4,65.4-10.4c-13.5,8-52.6,17.1-52.6,17.1c33.8-4.8,67.5-17.4,67.5-17.4
			c-15.7,8.9-71.1,27-71.1,27c32.8-5.5,87.8-29.4,87.8-29.4c-10.6,10.6-60.7,29.4-60.7,29.4c39.4-8.7,80.5-35.6,80.5-35.6
			c-9.9,11.7-48.2,35.6-48.2,35.6c25.6-11.6,53.3-35.6,53.3-35.6c-6.3,11.7-37.4,33-37.4,33c29.4-15,52.3-45.3,52.3-45.3h19.4
			c2.5,0,4.9-0.7,7-1.9l10.4,13c0.7,0.8,1.6,1.3,2.6,1.3c0.7,0,1.5-0.2,2.1-0.7C1152.1,836.1,1152.3,834,1151.1,832.5z"/>
		<path d="M1202.7,544.5l-7.3-8.5c1.3-1.9,2.1-4.3,2.1-6.8v0c0-6.7-5.5-12.2-12.2-12.2h-6.4c-4.8-21.8-30.5-43-30.5-43
			c-56.2-49.5-114.9-70.5-114.9-70.5c8.6,4.5,9.8,12.4,9.8,12.4c1.9,7.2,6.8,11,6.8,11c-5.2-1.3-9.6-7.5-9.6-7.5
			c2.7,6,9,13.1,9,13.1c-6.8-2.6-12-2.1-12-2.1c8.9,2,12.2,6.6,12.2,6.6c-12.7-5.6-20.9-5.3-20.9-5.3c20.8,4.2,36.8,21.6,36.8,21.6
			c-11.7,0.2-43-10.9-43-10.9c-30.5-10.7-46.7-8.4-46.7-8.4c24,4.7,42.4,21.7,42.4,21.7c-25.9-9.7-39.4-6.5-39.4-6.5
			c12.1,0.8,25.5,11.7,25.5,11.7c30.3,22,72.9,30.9,72.9,30.9c-16.2-3.4-25.5-2.4-25.5-2.4c23,1.4,46.5,11.3,46.5,11.3
			c-43.2-12.3-60.4-7.3-60.4-7.3c41.4-1.4,79,15.8,79,15.8c-59.4-17.8-87.4-9.7-87.4-9.7c56.1-4.5,109,19.9,109,19.9h-83.5v5.2
			c-11.9,0.2-23.8,3.9-33.9,10.5c-11.4,7.5-19.6,18.2-23.2,30.3c-2.6,8.8-2.3,17.8,0.9,25.5c6.4,15.4,19.6,23.8,39.4,25
			c1.8,0.1,3.6,0.2,5.4,0.2c14.4,0,29.5-3.2,41.9-5.9c2.4-0.5,4.7-1,6.8-1.4c12.7-4.1,18.1-7.3,18.1-7.3
			c-24.2-3.2-60.8-8.9-60.8-8.9l20.4,11.1c-10.2,1.9-21.2,3.4-31.3,2.8c-16.1-1-26.3-7.3-31.2-19.2c-2.4-5.7-2.5-12.5-0.6-19.1
			c5.7-19.3,26.1-33.6,48.1-34.1v5.8h84.3c-3.4,4.4-9.2,3-9.2,3c-16.9-2.9-25.7-1-25.7-1c13.1-0.4,26.3,2.6,26.3,2.6
			c-26.3-2.6-44.9,0.8-44.9,0.8c32.8-1.6,47.4,1.3,47.4,1.3c-16.9,6.7-74.5,1.5-74.5,1.5c37.7,6.8,70.4,1.5,70.4,1.5
			c-18.4,7.6-87.9,4-87.9,4c64.1,7.5,99.8-5.1,99.8-5.1c-9.9,7.7-46.3,9.7-46.3,9.7c-44.4,1.6-55.2,14.1-55.2,14.1
			c19-10.7,55.2-12.3,55.2-12.3c23-1,37.8-6.1,37.8-6.1c-12.3,8.3-72.9,16.6-72.9,16.6c51.5-4.4,76.2-15.8,76.2-15.8
			c-12.9,9.9-83.9,25.1-83.9,25.1c46.9-7.9,81.4-19.4,81.4-19.4c-16.9,10.5-72.7,22.2-72.7,22.2c53.1-8.1,80.8-23.3,80.8-23.3
			c-19,15.3-66.2,24.8-66.2,24.8c53.4-5.9,103.7-44.1,103.7-44.1v1.6h6.4c2.1,0,4-0.5,5.7-1.4l7.3,8.4c0.6,0.7,1.4,1,2.3,1
			c0.7,0,1.4-0.2,1.9-0.7C1203.6,547.6,1203.8,545.7,1202.7,544.5z"/>
		<path d="M724.2,832.5l-14.8-9.2c0.6-1.6,1-3.4,1-5.3l0,0c0-8.2-6.6-14.8-14.8-14.8h-18.4c0,0-43.7-50.6-147.3-88.1
			c0,0,83.3,36.1,101.1,57.3c0,0-70.6-44.1-121.4-52.6c0,0,83.8,24.9,125.7,61c0,0-57.7-35-108.4-47.3c0,0,78.1,29.6,93.3,43.7
			c0,0-83.1-36.3-130.2-47.5c0,0,86.9,31,107.4,45.8c0,0-92.9-41.1-162.4-44.8c0,0,104,18.3,158.5,48.3c0,0-90-34.7-193.7-42.2
			c0,0,123,16.4,181.2,43.7c0,0-99.5-28.2-192.4-35.2c0,0,136.1,21.1,165.7,36.1c0,0-36.6-8.9-64.8-13.1c0,0,44.6,11.3,51.6,16.9
			c0,0-38-9.9-67.1-13.6c0,0,32.9,8,45.1,14.1c0,0-24.9-6.1-42.2-7c0,0,19.6,4.7,29.1,11.3c0,0-91.5-18.3-167.5,11.3
			c0,0,50-15.4,97.9-11.5c0,0-71.6,2.4-124.1,24.3c0,0,47.8-15.9,98.8-18c0,0-56,7-108.4,27.8c0,0,50-14.4,85.9-16.9
			c0,0-44.7,7.7-75,16.9c0,0,32.4-6,45.1-5.6c0,0-28.3,3.3-57.6,17.6c0,0,28-9.3,44-10.7c0,0-29.4,8.3-55.8,29
			c0,0,18.5-10.9,31-14.4c0,0-29.1,16.2-41.5,35.9c0,0,19.5-19,31-23.9c0,0-17.6,13.4-36.8,44.4c0,0,21.6-27.5,33.8-33.8
			c0,0-27,28.4-37.3,46.7c0,0,22.5-27.2,35.7-36.6c0,0-18.3,17.1-40.1,50c0,0,20.9-28.2,41.1-41.1c0,0-18.1,15.5-30.5,39
			c0,0,12.4-16.2,23.7-22.3c0,0-13.8,20.7-29.3,51.4c0,0,57.5-66.2,202.2-118.4c-8.4,8.5-12.7,19.7-12.6,33.3
			c0,0.8,0.3,20.4,11.8,30.7c7,6.2,18.2,12.1,35.7,12.1c10.4,0,23-2,38.2-7.3c0,0-0.6-0.2-1.6-0.5c-4.2-1.3-16.2-5.3-28.1-10.5
			c0,0,3.5,4.5,7.7,8.2c-20.1,3.8-35.9,1-46.3-8.3c-8.8-7.8-9-24.3-9-24.5c-0.1-16.8,7.5-28.8,22.6-35.8c7.3-3.4,14.8-4.8,19.5-5.4
			v2.2c30.1,3.6,62,5.6,89.9,6.7c-15.3,7.6-50.4,6.7-50.4,6.7c32.4,1.6,47.2-0.2,47.2-0.2c-16.2,4.2-67.8,8-67.8,8
			c47.6-0.9,74.6-5,74.6-5c-7.4,3.7-50.2,9.2-50.2,9.2c33.4-2.1,55.1-7.2,55.1-7.2c-10.6,7-66.9,13.7-66.9,13.7
			c39.6-2.3,70-10.9,70-10.9c-12.2,5.4-57.3,15.5-57.3,15.5c30.5-4,61.3-13.6,61.3-13.6c-7,4.9-50.9,16.4-50.9,16.4
			c20.4-3.3,46.5-10.1,46.5-10.1c-9.4,5.4-62,17.2-62,17.2c44.4-6.1,78.4-19,78.4-19c-9.6,8.4-60.3,19.9-60.3,19.9
			c48.1-7.3,80.7-24.9,80.7-24.9c-10.6,8.9-66.2,27.9-66.2,27.9c53.5-12,95.9-42.3,95.9-42.3l-0.8-0.1c0.5,0,0.8,0,0.8,0v0.1h18.4
			c3.2,0,6.2-1.1,8.7-2.8l15.5,9.7c0.7,0.4,1.5,0.6,2.2,0.6c1.4,0,2.8-0.7,3.6-2C726.8,836.4,726.2,833.8,724.2,832.5z"/>
		<g>
			<path d="M495.2,531.2L495.2,531.2c0-7.2-5.9-13.1-13.1-13.1h-12.2c0,0-7.7-36.4-49.1-64.1c0,0-72.7-46-96.9-78.8
				c0,0,18.2,26.5,30.4,35.1c0,0-21.5-12.9-33.3-30.2c0,0,9.5,17.8,22.7,27.9c0,0-12.1-6.6-20.1-19.6c0,0,6.6,14.7,17.8,22.2
				c0,0-10.5-5.5-15.2-11.8c0,0,5.9,9,18,19.6c0,0-11.9-7.9-16.9-13.8c0,0,4.6,8.4,13.8,17.1c0,0-8.7-5.8-11.9-10.2
				c1.9,2.7,10.8,15.1,17.5,20.2c0,0-11.3-7.7-15.5-14c0,0,5.8,11.3,12.3,15.3c0,0-5.9-2.5-9.8-7.9c0,0,12.6,36,56.2,61.6
				c-5.5-3.2-52.4-30.6-78.7-34.1c0,0,52.5,16.4,79.3,38.8c0,0-37.6-15.8-83.6-28.2c0,0,61.6,19.4,82.6,29.2c0,0-30.4-9.6-55.2-16.7
				c0,0,48.8,15.8,56.7,19.1c0,0-62.4-16.7-89.1-22.2c0,0,49.7,14,70.4,19.4c0,0-39.1-8.6-70.4-11.3c0,0,53.7,8.4,62.1,11.3
				c0,0-46-7.5-65.4-4.6c0,0,70.6,2.5,96.9,13.8c0,0-51.8-9.4-90-7.7c0,0,68.5,1.9,94.9,11.3c0,0-49.8-8.2-74.1-7.9
				c0,0,61.8,5.2,75.1,10.4c0,0-50.8-6.5-60-6.5c0,0,52.7,6.5,58.7,8.2c0,0-63.1-5.2-93.8-6.1c0,0,80.4,5.8,94.4,8.6
				c0,0-54.9-2.7-72.9-4.4c0,0,36.2,4.8,72.7,5.9c0,0-64.6-0.6-91.7,1.2c0,0,65.2-1.3,94,2.1c0,0-47.2-0.8-68.1,0
				c0,0,43.2-0.3,68.4,3.8c-16.2,1.1-33.6,2.8-50.2,5.3c0,0-79.4-10.5-124.7-32c0,0,15,9.4,27.8,14.8c0,0-16.7-4.6-23.8-8.6
				c0,0,10.7,8.2,19.2,9.8c0,0-11.1,1.3-22.1-3.1c0,0,8.8,6.3,22.1,6.1c0,0-12.9,2.3-23.2,0.2c0,0,4.8,3.6,23.4,3.5
				c0,0,6.9,0.3,10.4,1.9c0,0-25.5,1-40.1,3.7c0,0,29-1.9,38.4-0.4c0,0-15.5,0.5-32.6,5.6c0,0,21.8-2.9,28.5-3.2
				c0,0-23.1,4.9-34.3,11.1c0,0,21.9-6.9,33.7-7.9c0,0-15.5,4.2-25,9.6c0,0,15.8-5.1,26-5.4c0,0-14.4,5.7-26.6,7.7
				c0,0,18-1.4,25.9-3.7c0,0-16,4.7-25.7,11.1c0,0,46.3-18.7,99.3-17.3c-9.4,1.9-19.8,5.7-28,13c-9.1,8-14,18.9-14.6,32.4
				c-0.2,1.9-1.2,16.1,10.5,27.4c9.3,9,23.8,13.6,43.3,13.6c7.7,0,16.2-0.7,25.4-2.1c7.7-1.9,11.3-3.3,11.3-3.3
				c-15.2,0.7-41.3-11.1-41.3-11.1c1.7,3.7,3.6,6.4,5.5,8.4c-17.5,0.1-30.6-3.7-38.4-11.2c-9.4-9-8.2-20.4-8.2-20.9l0-0.3
				c0.5-11.2,4.5-20.3,11.9-26.8c15.2-13.4,40.6-13.1,46.2-12.8v1.7c28.3,4.3,59,6.2,81.9,6.9C406.6,550,334.7,557,334.7,557
				c35.9-1.3,100.9-10.2,100.9-10.2c-19.2,7-100.7,18.7-100.7,18.7c49.7-3.6,112.6-19.2,112.6-19.2c-15.9,27.4-125.5,43-125.5,43
				c88-7.5,123.4-37,123.4-37c-2.9,10-43.2,29.5-43.2,29.5c22.1-7.3,41.6-24.2,41.6-24.2c-7.9,16.7-68.9,43.9-68.9,43.9
				c29-10.7,47.9-24.2,47.9-24.2c-4.8,9-44.5,34.7-44.5,34.7c21.3-10.7,47.1-33.8,47.1-33.8c-26.8,30.2-86.3,64.7-86.3,64.7
				c40-18.4,88.9-62.4,88.9-62.4c-8.8,10.2-15.8,19.5-21.4,27.7c-5.8,4.3-9.7,6.9-9.7,6.9c2.9-1.6,5.7-3.3,8.4-4.9
				c-16,24.1-19.1,38.2-19.1,38.2c5.4-14.3,13.7-28.1,22.8-40.6c41.9-27.5,60.8-63.6,60.8-63.6l-0.2,0c0.1,0,0.2,0,0.2,0v0h12.2
				C489.3,544.3,495.2,538.4,495.2,531.2z M411.4,604.8c22.1-29.3,47.8-50.1,47.8-50.1C451.2,572.4,427.1,592.8,411.4,604.8z"/>
			<path d="M329.3,411.4c-0.2-0.3-0.4-0.5-0.4-0.5C329,411.1,329.1,411.2,329.3,411.4z"/>
		</g>
	</g>
</g>
</svg>
